<svg xmlns="http://www.w3.org/2000/svg" xmlns:xlink="http://www.w3.org/1999/xlink" id="svg" width="400" height="349.59999999999997" viewBox="0, 0, 400,349.59999999999997"><g id="svgg"><path id="path0" d="M138.009 0.425 C 137.892 0.832,136.407 4.683,135.801 6.150 C 135.643 6.535,135.131 7.817,134.666 9.000 C 134.200 10.183,133.481 12.005,133.067 13.050 C 132.654 14.095,132.198 15.265,132.055 15.650 C 131.912 16.035,131.573 16.890,131.302 17.550 C 131.031 18.210,130.466 19.628,130.046 20.700 C 129.012 23.344,128.221 25.344,124.858 33.826 C 124.056 35.848,123.400 37.528,123.400 37.560 C 123.400 37.591,123.156 38.209,122.857 38.933 C 122.558 39.658,121.978 41.105,121.567 42.150 C 121.156 43.195,120.383 45.153,119.851 46.500 C 119.318 47.848,118.687 49.445,118.449 50.050 C 118.211 50.655,117.367 52.792,116.573 54.800 C 114.998 58.782,113.747 61.950,111.951 66.500 C 109.925 71.637,109.236 73.377,108.092 76.250 C 107.017 78.949,106.362 80.612,105.158 83.700 C 104.847 84.498,104.461 85.465,104.299 85.850 C 104.137 86.235,103.581 87.630,103.062 88.950 C 101.706 92.404,100.871 94.526,100.151 96.350 C 99.803 97.230,99.173 98.828,98.751 99.900 C 97.834 102.227,96.761 104.937,95.068 109.200 C 92.921 114.607,92.318 116.137,92.013 116.956 C 91.851 117.393,91.559 118.133,91.365 118.600 C 91.170 119.067,90.535 120.665,89.953 122.150 C 89.371 123.635,88.764 125.165,88.603 125.550 C 88.442 125.935,87.899 127.308,87.396 128.600 C 86.893 129.893,85.928 132.345,85.251 134.050 C 84.574 135.755,83.719 137.915,83.351 138.850 C 82.983 139.785,82.299 141.518,81.831 142.700 C 81.363 143.883,80.696 145.570,80.349 146.450 C 79.442 148.752,78.241 151.786,76.453 156.300 C 73.442 163.903,71.283 169.366,69.835 173.050 C 69.424 174.095,68.951 175.288,68.784 175.700 C 68.402 176.645,67.988 177.691,66.928 180.400 C 66.466 181.583,65.934 182.916,65.746 183.362 C 65.558 183.809,65.269 184.543,65.102 184.993 C 64.936 185.444,64.234 187.238,63.541 188.981 C 62.848 190.724,61.997 192.870,61.651 193.750 C 60.571 196.492,59.570 199.023,58.148 202.600 C 57.394 204.498,56.585 206.545,56.350 207.150 C 56.115 207.755,55.735 208.722,55.506 209.300 C 55.276 209.878,54.431 212.015,53.629 214.050 C 52.826 216.085,51.572 219.257,50.843 221.100 C 50.113 222.943,49.309 224.986,49.055 225.641 C 48.802 226.296,48.532 226.971,48.456 227.141 C 48.381 227.311,47.610 229.250,46.743 231.450 C 45.876 233.650,44.473 237.205,43.625 239.350 C 42.777 241.495,41.745 244.105,41.332 245.150 C 40.919 246.195,40.356 247.613,40.080 248.300 C 39.804 248.988,39.466 249.865,39.328 250.250 C 39.190 250.635,38.882 251.423,38.644 252.000 C 38.406 252.578,37.419 255.053,36.451 257.500 C 35.482 259.947,34.552 262.288,34.383 262.700 C 34.214 263.113,33.923 263.855,33.735 264.350 C 33.547 264.845,33.151 265.858,32.854 266.600 C 32.557 267.343,31.977 268.805,31.566 269.850 C 29.803 274.326,28.231 278.304,26.159 283.523 C 25.467 285.269,24.900 286.724,24.900 286.757 C 24.900 286.790,24.655 287.409,24.357 288.133 C 24.058 288.858,23.425 290.440,22.950 291.650 C 22.475 292.860,21.904 294.300,21.682 294.850 C 21.459 295.400,21.122 296.255,20.932 296.750 C 20.743 297.245,20.347 298.257,20.052 299.000 C 19.200 301.148,18.087 303.972,17.155 306.350 C 16.681 307.560,16.117 308.978,15.902 309.500 C 15.500 310.478,14.270 313.587,12.756 317.450 C 12.282 318.660,11.717 320.078,11.500 320.600 C 11.125 321.506,10.706 322.578,9.401 325.967 C 9.079 326.801,8.719 327.701,8.600 327.967 C 8.480 328.233,8.249 328.810,8.085 329.250 C 7.921 329.690,7.457 330.882,7.053 331.900 C 6.650 332.918,5.757 335.168,5.070 336.900 C 4.382 338.632,3.436 341.018,2.967 342.200 C 2.497 343.382,1.978 344.710,1.813 345.150 C 1.648 345.590,1.337 346.378,1.123 346.900 C 0.673 347.995,0.200 349.314,0.200 349.472 C 0.200 349.585,0.609 349.524,0.700 349.398 C 0.768 349.304,2.668 348.700,2.898 348.700 C 3.000 348.700,3.098 348.662,3.117 348.615 C 3.164 348.495,4.995 347.900,5.317 347.900 C 5.463 347.900,5.598 347.861,5.617 347.814 C 5.657 347.709,7.598 347.100,7.891 347.100 C 8.006 347.100,8.100 347.060,8.100 347.012 C 8.100 346.900,9.969 346.300,10.320 346.300 C 10.465 346.300,10.598 346.264,10.617 346.220 C 10.661 346.112,12.127 345.600,12.391 345.600 C 12.506 345.600,12.600 345.562,12.600 345.516 C 12.600 345.417,14.558 344.800,14.870 344.800 C 14.988 344.800,15.098 344.762,15.117 344.715 C 15.155 344.616,17.105 343.946,17.241 343.984 C 17.291 343.999,17.358 343.972,17.391 343.924 C 17.466 343.814,19.408 343.200,19.680 343.200 C 19.792 343.200,19.898 343.164,19.917 343.120 C 19.964 343.006,21.676 342.400,21.952 342.400 C 22.079 342.400,22.198 342.365,22.217 342.321 C 22.262 342.215,23.988 341.697,24.292 341.699 C 24.425 341.699,24.502 341.669,24.463 341.630 C 24.368 341.535,25.644 341.030,26.200 340.943 C 26.448 340.904,26.673 340.841,26.700 340.803 C 26.770 340.705,28.657 340.100,28.891 340.100 C 28.997 340.100,29.098 340.062,29.117 340.017 C 29.164 339.899,30.861 339.300,31.147 339.300 C 31.277 339.300,31.398 339.266,31.417 339.224 C 31.462 339.120,33.330 338.500,33.597 338.500 C 33.715 338.500,33.789 338.463,33.762 338.419 C 33.705 338.327,35.248 337.800,35.573 337.800 C 35.689 337.800,35.798 337.764,35.817 337.719 C 35.861 337.613,37.631 337.000,37.895 337.000 C 38.008 337.000,38.100 336.962,38.100 336.916 C 38.100 336.816,39.970 336.200,40.274 336.200 C 40.389 336.200,40.498 336.162,40.517 336.115 C 40.556 336.015,42.182 335.373,42.400 335.371 C 42.483 335.370,42.573 335.340,42.600 335.303 C 42.676 335.202,44.463 334.600,44.687 334.600 C 44.795 334.600,44.898 334.563,44.917 334.519 C 44.965 334.402,46.368 333.900,46.647 333.900 C 46.777 333.900,46.898 333.862,46.917 333.815 C 46.955 333.717,48.767 333.100,49.017 333.100 C 49.108 333.100,49.198 333.062,49.217 333.016 C 49.265 332.896,50.873 332.300,51.150 332.300 C 51.278 332.300,51.398 332.264,51.417 332.219 C 51.461 332.113,53.231 331.500,53.495 331.500 C 53.608 331.500,53.700 331.461,53.700 331.413 C 53.700 331.310,55.400 330.700,55.687 330.700 C 55.795 330.700,55.898 330.663,55.917 330.619 C 55.960 330.513,57.354 330.000,57.597 330.000 C 57.700 330.000,57.798 329.962,57.817 329.917 C 57.865 329.796,59.565 329.200,59.861 329.200 C 60.003 329.200,60.085 329.157,60.050 329.100 C 60.016 329.045,60.052 329.000,60.130 329.000 C 60.209 329.000,60.600 328.865,61.000 328.700 C 61.400 328.535,61.808 328.400,61.905 328.400 C 62.003 328.400,62.098 328.363,62.117 328.317 C 62.165 328.196,63.956 327.600,64.269 327.600 C 64.414 327.600,64.501 327.568,64.462 327.529 C 64.378 327.445,65.950 326.816,66.267 326.806 C 66.386 326.803,66.498 326.762,66.517 326.715 C 66.555 326.617,68.068 326.100,68.317 326.100 C 68.408 326.100,68.498 326.066,68.517 326.025 C 68.564 325.920,69.888 325.388,70.250 325.329 C 70.415 325.302,70.575 325.240,70.606 325.190 C 70.674 325.080,72.366 324.500,72.619 324.500 C 72.718 324.500,72.800 324.459,72.800 324.409 C 72.800 324.289,74.346 323.700,74.659 323.700 C 74.791 323.700,74.900 323.658,74.900 323.607 C 74.900 323.555,75.001 323.484,75.125 323.448 C 75.249 323.411,75.628 323.273,75.967 323.141 C 76.306 323.008,76.678 322.900,76.792 322.900 C 76.906 322.900,77.000 322.861,77.000 322.813 C 77.000 322.705,78.374 322.199,78.667 322.200 C 78.786 322.200,78.898 322.158,78.917 322.107 C 78.950 322.012,80.142 321.531,80.600 321.427 C 80.738 321.396,80.873 321.335,80.901 321.293 C 80.979 321.175,82.607 320.600,82.861 320.600 C 82.983 320.600,83.098 320.565,83.117 320.522 C 83.166 320.406,84.662 319.800,84.898 319.800 C 85.009 319.800,85.100 319.761,85.100 319.714 C 85.100 319.602,86.781 319.000,87.094 319.000 C 87.225 319.000,87.303 318.970,87.267 318.933 C 87.179 318.845,88.479 318.300,88.778 318.300 C 88.907 318.300,88.987 318.260,88.957 318.211 C 88.927 318.163,89.003 318.099,89.126 318.071 C 89.249 318.042,89.697 317.885,90.120 317.721 C 90.544 317.558,90.918 317.451,90.951 317.484 C 90.984 317.517,91.042 317.499,91.080 317.444 C 91.192 317.283,92.602 316.700,92.880 316.700 C 93.019 316.700,93.102 316.669,93.065 316.631 C 92.990 316.557,94.743 315.900,95.017 315.900 C 95.108 315.900,95.198 315.855,95.217 315.799 C 95.264 315.657,96.667 315.100,96.977 315.100 C 97.118 315.100,97.204 315.070,97.167 315.034 C 97.131 314.997,97.539 314.800,98.075 314.595 C 98.611 314.391,99.298 314.105,99.600 313.961 C 99.903 313.817,100.319 313.671,100.525 313.637 C 100.731 313.602,100.900 313.544,100.900 313.507 C 100.900 313.470,101.069 313.382,101.275 313.312 C 101.481 313.241,101.841 313.097,102.074 312.992 C 102.307 312.886,102.588 312.800,102.699 312.800 C 102.810 312.800,102.900 312.761,102.900 312.714 C 102.900 312.607,104.419 312.000,104.687 312.000 C 104.795 312.000,104.898 311.963,104.917 311.918 C 104.959 311.813,106.434 311.200,106.643 311.200 C 106.729 311.200,106.800 311.164,106.800 311.120 C 106.800 311.076,106.969 310.983,107.175 310.913 C 107.381 310.844,107.640 310.748,107.750 310.701 C 109.561 309.920,110.179 309.675,110.325 309.681 C 110.421 309.685,110.500 309.651,110.500 309.607 C 110.500 309.514,112.081 308.900,112.322 308.900 C 112.411 308.900,112.498 308.861,112.517 308.813 C 112.565 308.686,113.947 308.100,114.198 308.100 C 114.315 308.100,114.386 308.059,114.355 308.008 C 114.324 307.958,114.434 307.886,114.600 307.850 C 114.766 307.814,115.025 307.723,115.176 307.650 C 115.327 307.576,116.215 307.196,117.150 306.804 C 118.085 306.413,118.998 306.027,119.178 305.946 C 119.359 305.866,119.598 305.800,119.709 305.800 C 119.821 305.800,119.884 305.755,119.850 305.700 C 119.816 305.645,119.856 305.600,119.938 305.600 C 120.021 305.600,120.249 305.506,120.444 305.390 C 120.640 305.275,120.800 305.210,120.800 305.246 C 120.800 305.282,120.900 305.241,121.022 305.156 C 121.144 305.070,121.369 305.000,121.522 305.000 C 121.675 305.000,121.800 304.964,121.800 304.920 C 121.800 304.834,123.282 304.200,123.482 304.200 C 123.547 304.200,123.600 304.160,123.600 304.111 C 123.600 304.062,124.309 303.740,125.175 303.395 C 126.041 303.050,126.840 302.711,126.950 302.641 C 127.284 302.429,128.691 301.900,128.919 301.900 C 129.037 301.900,129.105 301.872,129.071 301.837 C 128.989 301.756,130.357 301.100,130.608 301.100 C 130.714 301.100,130.800 301.064,130.800 301.020 C 130.800 300.922,132.296 300.300,132.532 300.300 C 132.624 300.300,132.700 300.260,132.700 300.212 C 132.700 300.164,132.846 300.065,133.025 299.993 C 133.204 299.921,133.665 299.719,134.050 299.543 C 134.435 299.367,135.020 299.110,135.350 298.970 C 135.680 298.831,136.286 298.556,136.697 298.359 C 137.108 298.161,137.554 298.000,137.689 298.000 C 137.823 298.000,137.904 297.970,137.868 297.934 C 137.808 297.875,138.453 297.569,139.250 297.277 C 139.415 297.217,139.573 297.132,139.602 297.090 C 139.687 296.964,141.001 296.400,141.209 296.400 C 141.314 296.400,141.400 296.355,141.400 296.300 C 141.400 296.245,141.440 296.200,141.490 296.200 C 141.539 296.200,142.090 295.959,142.715 295.664 C 143.339 295.369,144.300 294.934,144.850 294.698 C 145.400 294.462,145.893 294.231,145.945 294.184 C 145.997 294.138,146.121 294.100,146.220 294.100 C 146.319 294.100,146.400 294.061,146.400 294.014 C 146.400 293.915,147.819 293.300,148.048 293.300 C 148.131 293.300,148.200 293.262,148.200 293.215 C 148.200 293.109,149.505 292.500,149.733 292.500 C 149.825 292.500,149.900 292.461,149.900 292.414 C 149.900 292.366,150.181 292.202,150.525 292.048 C 150.869 291.895,151.555 291.577,152.050 291.340 C 153.991 290.415,154.477 290.200,154.627 290.200 C 154.713 290.200,154.798 290.161,154.817 290.112 C 154.869 289.976,156.070 289.400,156.303 289.400 C 156.418 289.400,156.489 289.362,156.460 289.316 C 156.409 289.233,157.742 288.599,157.967 288.600 C 158.031 288.600,158.098 288.563,158.117 288.517 C 158.159 288.411,162.479 286.300,162.653 286.300 C 162.725 286.300,162.798 286.266,162.817 286.225 C 162.861 286.126,164.123 285.500,164.279 285.500 C 164.346 285.500,164.400 285.462,164.400 285.415 C 164.400 285.321,165.750 284.700,165.955 284.700 C 166.025 284.700,166.098 284.659,166.117 284.608 C 166.156 284.498,170.284 282.400,170.461 282.400 C 170.528 282.400,170.598 282.366,170.617 282.324 C 170.668 282.208,171.857 281.600,172.034 281.600 C 172.120 281.600,172.226 281.538,172.270 281.463 C 172.363 281.303,173.325 280.800,173.538 280.800 C 173.618 280.800,173.698 280.759,173.717 280.708 C 173.745 280.629,176.728 279.056,178.900 277.974 C 179.258 277.796,179.572 277.625,179.600 277.595 C 179.720 277.462,180.811 276.900,180.948 276.900 C 181.032 276.900,181.100 276.863,181.100 276.818 C 181.100 276.773,181.449 276.559,181.875 276.343 C 182.301 276.127,182.673 275.922,182.700 275.887 C 182.751 275.822,182.818 275.787,184.365 275.000 C 184.852 274.752,185.273 274.521,185.300 274.486 C 185.401 274.357,186.413 273.800,186.546 273.800 C 186.622 273.800,186.698 273.764,186.717 273.721 C 186.769 273.598,187.878 273.000,188.054 273.000 C 188.141 273.000,188.190 272.965,188.164 272.922 C 188.137 272.879,188.369 272.710,188.679 272.547 C 189.174 272.286,190.343 271.628,191.250 271.099 C 192.185 270.554,192.790 270.208,193.100 270.040 C 193.292 269.935,193.472 269.823,193.500 269.791 C 193.527 269.758,193.843 269.578,194.200 269.391 C 194.558 269.203,194.865 269.016,194.883 268.975 C 194.902 268.934,194.961 268.900,195.015 268.900 C 195.069 268.900,195.268 268.782,195.457 268.638 C 195.646 268.494,195.801 268.415,195.802 268.463 C 195.802 268.511,195.836 268.500,195.877 268.440 C 195.983 268.280,199.803 266.000,199.964 266.000 C 200.039 266.000,200.100 265.962,200.100 265.915 C 200.100 265.802,201.074 265.200,201.257 265.200 C 201.335 265.200,201.400 265.157,201.400 265.105 C 201.400 265.017,201.583 264.897,202.200 264.582 C 202.338 264.512,202.472 264.428,202.500 264.395 C 202.612 264.264,203.678 263.600,203.777 263.600 C 203.835 263.600,203.898 263.560,203.917 263.512 C 203.965 263.384,206.013 262.100,206.168 262.100 C 206.241 262.100,206.300 262.060,206.300 262.010 C 206.300 261.961,206.536 261.771,206.825 261.587 C 207.114 261.404,207.365 261.219,207.383 261.177 C 207.402 261.135,207.477 261.100,207.550 261.100 C 207.623 261.100,207.698 261.064,207.717 261.019 C 207.735 260.974,208.043 260.761,208.400 260.545 C 208.757 260.329,209.072 260.127,209.100 260.097 C 209.128 260.066,209.578 259.755,210.100 259.406 C 210.623 259.056,211.264 258.615,211.525 258.426 C 211.786 258.238,212.000 258.107,212.000 258.137 C 212.000 258.166,212.110 258.089,212.244 257.964 C 212.379 257.840,212.660 257.650,212.869 257.544 C 213.079 257.437,213.282 257.301,213.321 257.242 C 213.360 257.182,213.585 257.002,213.821 256.842 C 214.624 256.297,216.348 255.059,216.834 254.679 C 217.100 254.470,217.353 254.300,217.396 254.300 C 217.440 254.300,217.646 254.143,217.856 253.951 C 218.066 253.759,218.330 253.572,218.443 253.536 C 218.557 253.500,218.694 253.418,218.750 253.353 C 218.917 253.157,219.967 252.300,220.040 252.300 C 220.078 252.300,220.230 252.188,220.378 252.050 C 220.527 251.913,220.701 251.800,220.766 251.800 C 220.830 251.800,220.898 251.762,220.917 251.715 C 220.965 251.591,222.081 250.700,222.188 250.700 C 222.238 250.700,222.305 250.633,222.336 250.550 C 222.368 250.468,222.434 250.400,222.484 250.400 C 222.534 250.400,222.772 250.220,223.012 250.000 C 223.253 249.780,223.480 249.600,223.517 249.600 C 223.554 249.600,223.714 249.476,223.872 249.325 C 224.030 249.174,224.712 248.600,225.389 248.050 C 226.065 247.500,226.738 246.947,226.884 246.822 C 227.720 246.103,228.037 245.817,228.321 245.525 C 228.495 245.346,228.696 245.200,228.768 245.200 C 228.841 245.200,228.900 245.161,228.900 245.114 C 228.900 245.067,229.474 244.510,230.175 243.877 C 232.055 242.179,232.048 242.186,233.375 240.873 C 234.049 240.206,234.600 239.622,234.600 239.574 C 234.600 239.527,234.645 239.516,234.700 239.550 C 234.755 239.584,234.800 239.549,234.800 239.471 C 234.800 239.394,234.991 239.150,235.225 238.930 C 235.761 238.424,236.901 237.160,237.928 235.935 C 238.364 235.415,238.806 234.936,238.910 234.870 C 239.015 234.805,239.100 234.716,239.100 234.672 C 239.100 234.590,239.211 234.438,239.525 234.093 C 239.621 233.987,239.700 233.857,239.700 233.805 C 239.700 233.753,239.757 233.674,239.826 233.630 C 239.895 233.586,240.084 233.370,240.245 233.150 C 240.407 232.930,240.565 232.728,240.596 232.700 C 240.627 232.673,240.776 232.459,240.927 232.225 C 241.079 231.991,241.247 231.800,241.301 231.800 C 241.356 231.800,241.389 231.759,241.375 231.709 C 241.361 231.658,241.519 231.413,241.725 231.165 C 241.931 230.916,242.100 230.681,242.100 230.643 C 242.100 230.605,242.317 230.254,242.581 229.862 C 243.139 229.037,244.340 227.088,244.761 226.325 C 244.920 226.036,245.084 225.800,245.125 225.800 C 245.166 225.800,245.200 225.731,245.200 225.647 C 245.200 225.455,245.695 224.462,245.813 224.417 C 245.861 224.398,245.900 224.323,245.900 224.248 C 245.900 224.064,246.423 222.858,246.521 222.817 C 246.565 222.798,246.600 222.700,246.600 222.598 C 246.600 222.378,247.109 221.164,247.221 221.117 C 247.265 221.098,247.300 221.015,247.300 220.931 C 247.300 220.695,247.815 219.057,247.908 218.997 C 247.954 218.968,247.986 218.855,247.980 218.747 C 247.974 218.639,248.131 217.853,248.330 217.000 C 249.500 211.981,249.490 205.861,248.303 200.597 C 248.136 199.858,248.000 199.110,248.000 198.935 C 248.000 198.760,247.965 198.602,247.923 198.583 C 247.828 198.542,247.300 196.787,247.300 196.514 C 247.300 196.405,247.262 196.302,247.216 196.283 C 247.113 196.242,246.600 194.908,246.600 194.681 C 246.600 194.591,246.565 194.502,246.523 194.483 C 246.418 194.438,245.899 193.190,245.900 192.983 C 245.900 192.892,245.861 192.802,245.813 192.783 C 245.698 192.739,245.200 191.747,245.200 191.562 C 245.200 191.482,245.165 191.402,245.122 191.383 C 245.078 191.365,244.731 190.810,244.351 190.150 C 243.970 189.490,243.307 188.425,242.879 187.783 C 242.451 187.141,242.100 186.567,242.100 186.508 C 242.100 186.448,242.061 186.400,242.014 186.400 C 241.966 186.400,241.797 186.211,241.639 185.980 C 241.480 185.750,241.204 185.401,241.025 185.205 C 240.847 185.010,240.701 184.820,240.700 184.783 C 240.700 184.746,240.576 184.586,240.425 184.428 C 240.274 184.269,239.995 183.940,239.806 183.695 C 239.378 183.142,235.435 179.198,235.372 179.261 C 235.347 179.286,235.190 179.151,235.023 178.961 C 234.856 178.770,234.698 178.635,234.673 178.661 C 234.647 178.686,234.492 178.554,234.328 178.367 C 234.164 178.180,233.984 178.009,233.929 177.988 C 233.796 177.938,233.122 177.411,232.825 177.125 C 232.696 177.001,232.564 176.900,232.531 176.900 C 232.499 176.900,231.995 176.546,231.411 176.113 C 230.827 175.680,230.024 175.111,229.625 174.848 C 229.226 174.586,228.900 174.330,228.900 174.279 C 228.900 174.229,228.858 174.214,228.807 174.246 C 228.756 174.277,228.686 174.258,228.651 174.202 C 228.617 174.147,228.198 173.871,227.719 173.589 C 227.241 173.307,226.828 173.048,226.800 173.013 C 226.773 172.978,226.593 172.861,226.400 172.752 C 223.885 171.332,223.130 170.895,223.025 170.802 C 222.956 170.742,222.900 170.721,222.900 170.756 C 222.900 170.790,222.709 170.707,222.475 170.570 C 221.643 170.083,216.922 167.800,216.747 167.800 C 216.715 167.800,216.162 167.570,215.519 167.289 C 214.218 166.720,210.653 165.324,209.800 165.050 C 209.498 164.953,209.205 164.842,209.150 164.804 C 209.095 164.766,208.847 164.678,208.600 164.608 C 208.353 164.538,208.015 164.423,207.850 164.353 C 207.315 164.125,203.483 162.898,201.800 162.417 C 197.155 161.088,192.581 159.941,188.800 159.156 C 187.618 158.911,185.998 158.574,185.200 158.408 C 184.403 158.241,182.558 157.904,181.100 157.658 C 177.436 157.040,176.077 156.797,175.995 156.747 C 175.957 156.723,176.077 156.332,176.261 155.877 C 176.446 155.422,176.597 154.994,176.598 154.925 C 176.599 154.856,176.645 154.800,176.700 154.800 C 176.755 154.800,176.800 154.713,176.800 154.607 C 176.800 154.380,177.306 153.165,177.421 153.117 C 177.465 153.098,177.500 152.998,177.500 152.893 C 177.500 152.686,177.994 151.382,178.103 151.300 C 178.140 151.273,178.170 151.183,178.170 151.100 C 178.170 151.018,178.333 150.567,178.533 150.100 C 178.733 149.633,179.328 148.148,179.854 146.800 C 181.989 141.335,182.540 139.948,182.594 139.900 C 182.625 139.873,182.763 139.516,182.900 139.108 C 183.038 138.701,183.206 138.310,183.275 138.241 C 183.344 138.171,183.400 138.046,183.400 137.963 C 183.400 137.717,183.915 136.400,184.012 136.400 C 184.060 136.400,184.100 136.310,184.100 136.201 C 184.100 135.947,184.596 134.700,184.698 134.700 C 184.740 134.700,184.798 134.554,184.828 134.375 C 184.857 134.196,185.318 132.947,185.851 131.600 C 186.384 130.253,187.111 128.407,187.465 127.500 C 188.478 124.909,189.129 123.353,189.218 123.317 C 189.263 123.298,189.300 123.187,189.300 123.069 C 189.300 122.776,189.795 121.500,189.909 121.500 C 189.959 121.500,190.000 121.422,190.000 121.327 C 190.000 121.107,190.521 119.761,190.623 119.717 C 190.665 119.698,190.700 119.608,190.700 119.517 C 190.701 119.256,191.258 117.891,191.333 117.966 C 191.370 118.003,191.400 117.938,191.400 117.821 C 191.400 117.623,191.867 116.383,193.499 112.250 C 193.869 111.315,194.366 110.055,194.603 109.450 C 194.841 108.845,195.073 108.335,195.118 108.317 C 195.163 108.298,195.200 108.198,195.200 108.093 C 195.200 107.855,195.708 106.562,195.818 106.517 C 195.863 106.498,195.900 106.400,195.900 106.298 C 195.900 106.078,196.409 104.864,196.521 104.817 C 196.565 104.798,196.600 104.698,196.600 104.593 C 196.600 104.327,197.102 103.100,197.211 103.100 C 197.260 103.100,197.300 103.008,197.300 102.896 C 197.300 102.653,198.872 98.543,200.378 94.850 C 200.602 94.300,200.976 93.355,201.208 92.750 C 201.441 92.145,201.658 91.627,201.690 91.600 C 201.723 91.573,201.860 91.218,201.995 90.812 C 202.130 90.406,202.299 90.016,202.370 89.944 C 202.442 89.873,202.500 89.724,202.500 89.614 C 202.500 89.382,203.004 88.166,203.121 88.117 C 203.165 88.098,203.200 87.998,203.200 87.893 C 203.200 87.698,203.688 86.391,203.795 86.300 C 203.827 86.273,203.904 86.070,203.965 85.850 C 204.026 85.630,204.278 84.955,204.524 84.350 C 204.771 83.745,205.323 82.350,205.752 81.250 C 207.059 77.895,207.562 76.695,207.633 76.766 C 207.670 76.803,207.700 76.726,207.700 76.594 C 207.700 76.312,208.195 74.965,208.316 74.917 C 208.362 74.898,208.400 74.814,208.400 74.729 C 208.400 74.498,208.925 73.200,209.019 73.200 C 209.063 73.200,209.103 73.099,209.106 72.975 C 209.114 72.653,209.646 71.279,209.730 71.363 C 209.768 71.402,209.800 71.345,209.800 71.238 C 209.800 71.048,210.706 68.622,211.495 66.700 C 211.900 65.715,213.637 61.308,213.949 60.475 C 214.047 60.214,214.166 60.000,214.214 60.000 C 214.261 60.000,214.300 59.911,214.300 59.802 C 214.300 59.571,214.815 58.266,214.925 58.217 C 214.966 58.198,215.000 58.109,215.000 58.019 C 215.000 57.792,215.513 56.458,215.616 56.417 C 215.662 56.398,215.700 56.320,215.700 56.243 C 215.700 56.042,216.221 54.757,216.318 54.717 C 216.363 54.698,216.400 54.599,216.400 54.496 C 216.400 54.392,216.664 53.642,216.987 52.829 C 217.310 52.016,218.124 49.955,218.797 48.250 C 219.469 46.545,220.060 45.135,220.110 45.117 C 220.159 45.098,220.200 45.009,220.200 44.919 C 220.200 44.692,220.713 43.358,220.816 43.317 C 220.862 43.298,220.902 43.186,220.905 43.067 C 220.913 42.761,221.446 41.479,221.530 41.563 C 221.569 41.602,221.600 41.525,221.600 41.392 C 221.601 41.078,222.145 39.679,222.233 39.766 C 222.270 39.803,222.300 39.716,222.300 39.573 C 222.300 39.326,222.769 38.105,222.905 38.000 C 222.941 37.973,222.970 37.883,222.971 37.800 C 222.971 37.665,223.562 36.149,225.859 30.392 C 226.266 29.370,226.600 28.478,226.600 28.411 C 226.600 28.343,226.645 28.316,226.700 28.350 C 226.756 28.384,226.800 28.309,226.800 28.181 C 226.799 27.927,227.300 26.670,227.423 26.617 C 227.465 26.598,227.500 26.498,227.500 26.393 C 227.500 26.155,228.008 24.862,228.118 24.817 C 228.163 24.798,228.200 24.686,228.200 24.567 C 228.199 24.294,228.700 23.100,228.815 23.100 C 228.862 23.100,228.900 23.019,228.900 22.919 C 228.900 22.702,229.339 21.483,229.944 20.021 C 230.188 19.432,230.775 17.960,231.250 16.750 C 232.519 13.511,232.543 13.453,232.625 13.417 C 232.666 13.398,232.700 13.300,232.700 13.198 C 232.700 12.978,233.209 11.764,233.321 11.717 C 233.365 11.698,233.400 11.602,233.400 11.504 C 233.400 11.260,233.892 9.967,234.014 9.892 C 234.067 9.859,234.098 9.791,234.083 9.741 C 234.043 9.604,234.619 8.200,234.716 8.200 C 234.762 8.200,234.800 8.100,234.800 7.977 C 234.800 7.721,235.308 6.366,235.423 6.317 C 235.465 6.298,235.500 6.221,235.500 6.146 C 235.500 6.038,237.262 1.457,237.702 0.420 C 237.756 0.294,237.800 0.148,237.800 0.095 C 237.800 0.037,236.364 0.000,234.061 0.000 L 230.322 0.000 229.914 1.025 C 229.690 1.589,229.351 2.478,229.160 3.000 C 228.969 3.523,228.655 4.333,228.461 4.800 C 228.114 5.636,225.562 12.062,224.449 14.900 C 223.664 16.904,222.750 19.221,221.631 22.050 C 221.108 23.370,220.300 25.418,219.834 26.600 C 219.368 27.782,218.813 29.177,218.600 29.700 C 218.387 30.223,217.833 31.618,217.368 32.800 C 216.346 35.403,214.303 40.578,212.850 44.250 C 212.262 45.735,211.534 47.580,211.232 48.350 C 210.930 49.120,210.059 51.325,209.296 53.250 C 208.533 55.175,207.386 58.078,206.746 59.700 C 205.647 62.490,204.481 65.439,203.050 69.050 C 202.702 69.930,202.116 71.415,201.748 72.350 C 200.292 76.055,198.969 79.397,198.601 80.300 C 198.388 80.823,197.869 82.127,197.447 83.200 C 197.025 84.273,196.396 85.870,196.049 86.750 C 195.702 87.630,195.073 89.228,194.652 90.300 C 194.231 91.373,193.458 93.330,192.934 94.650 C 191.951 97.126,191.329 98.698,189.868 102.400 C 189.402 103.583,188.468 105.945,187.794 107.650 C 187.121 109.355,185.831 112.618,184.929 114.900 C 184.027 117.183,183.174 119.320,183.034 119.650 C 182.895 119.980,182.647 120.610,182.484 121.050 C 182.321 121.490,181.902 122.570,181.553 123.450 C 181.204 124.330,180.216 126.828,179.356 129.000 C 178.497 131.172,177.657 133.287,177.490 133.700 C 177.323 134.113,176.969 135.013,176.704 135.700 C 176.438 136.388,175.606 138.503,174.854 140.400 C 174.102 142.297,173.222 144.525,172.898 145.350 C 172.575 146.175,172.078 147.435,171.793 148.150 C 171.509 148.865,171.085 149.945,170.850 150.550 C 170.616 151.155,170.200 152.190,169.926 152.850 C 169.652 153.510,169.303 154.388,169.150 154.800 C 168.823 155.679,168.728 155.822,168.511 155.755 C 168.137 155.639,163.273 155.094,159.550 154.751 C 158.670 154.670,156.543 154.468,154.823 154.301 C 151.132 153.944,147.199 153.680,141.500 153.407 C 121.632 152.455,111.485 152.475,87.774 153.514 C 86.302 153.578,85.076 153.609,85.049 153.582 C 85.022 153.556,85.181 153.117,85.402 152.607 C 85.760 151.782,86.358 150.288,88.526 144.800 C 88.863 143.947,89.175 143.235,89.219 143.217 C 89.264 143.198,89.300 143.095,89.300 142.987 C 89.300 142.880,89.957 141.140,90.759 139.121 C 91.562 137.102,92.548 134.618,92.951 133.600 C 93.354 132.583,93.986 130.985,94.357 130.050 C 94.728 129.115,95.069 128.335,95.115 128.317 C 95.162 128.298,95.200 128.182,95.200 128.059 C 95.200 127.819,95.672 126.583,95.795 126.500 C 95.836 126.472,95.902 126.318,95.941 126.156 C 96.008 125.882,96.960 123.423,98.769 118.850 C 99.183 117.805,99.855 116.095,100.264 115.050 C 101.234 112.573,101.622 111.658,101.720 111.617 C 101.764 111.598,101.800 111.495,101.800 111.387 C 101.800 111.202,103.203 107.535,104.300 104.850 C 104.570 104.190,105.090 102.885,105.455 101.950 C 106.904 98.240,107.517 96.749,107.606 96.717 C 107.658 96.698,107.700 96.587,107.700 96.469 C 107.700 96.237,108.188 94.882,108.301 94.800 C 108.339 94.773,108.395 94.638,108.425 94.500 C 108.456 94.363,108.640 93.868,108.836 93.400 C 109.032 92.933,109.446 91.898,109.756 91.100 C 110.065 90.303,110.694 88.705,111.152 87.550 C 111.609 86.395,112.463 84.235,113.049 82.750 C 113.635 81.265,114.156 80.035,114.207 80.017 C 114.258 79.998,114.300 79.898,114.300 79.793 C 114.300 79.587,114.793 78.282,114.902 78.200 C 114.939 78.173,114.998 77.999,115.034 77.814 C 115.070 77.629,115.306 76.977,115.558 76.364 C 115.810 75.751,116.077 75.093,116.151 74.900 C 116.483 74.033,118.049 70.067,118.361 69.300 C 118.551 68.833,119.004 67.685,119.367 66.750 C 119.731 65.815,120.067 65.035,120.114 65.017 C 120.161 64.998,120.200 64.908,120.200 64.817 C 120.201 64.556,120.758 63.191,120.833 63.266 C 120.870 63.303,120.900 63.208,120.900 63.054 C 120.900 62.900,121.073 62.364,121.285 61.862 C 121.497 61.360,121.767 60.703,121.885 60.400 C 122.101 59.850,124.137 54.694,125.775 50.550 C 126.253 49.340,126.680 48.335,126.722 48.317 C 126.765 48.298,126.800 48.198,126.800 48.094 C 126.800 47.841,127.313 46.600,127.418 46.600 C 127.463 46.600,127.500 46.505,127.500 46.389 C 127.500 46.273,127.788 45.451,128.140 44.564 C 129.874 40.194,130.714 38.070,131.031 37.250 C 132.165 34.318,132.523 33.446,132.607 33.417 C 132.658 33.398,132.700 33.298,132.700 33.193 C 132.700 32.927,133.202 31.700,133.311 31.700 C 133.360 31.700,133.400 31.612,133.400 31.505 C 133.400 31.250,133.858 29.988,133.979 29.910 C 134.030 29.877,134.097 29.715,134.126 29.550 C 134.156 29.385,134.547 28.328,134.996 27.200 C 135.755 25.291,136.250 24.037,137.859 19.950 C 138.931 17.229,139.161 16.694,139.232 16.765 C 139.269 16.803,139.300 16.726,139.300 16.594 C 139.300 16.344,139.782 14.987,139.901 14.900 C 139.939 14.873,139.996 14.738,140.027 14.600 C 140.089 14.326,141.032 11.865,141.502 10.750 C 141.664 10.365,142.229 8.947,142.758 7.600 C 143.287 6.253,144.008 4.427,144.360 3.543 C 144.712 2.659,145.000 1.881,145.000 1.812 C 145.000 1.744,145.045 1.716,145.100 1.750 C 145.157 1.785,145.200 1.702,145.200 1.558 C 145.200 1.419,145.310 1.011,145.446 0.652 L 145.691 -0.000 141.911 -0.000 L 138.132 -0.000 138.009 0.425 M258.546 100.482 C 256.435 101.470,256.986 104.713,259.300 104.928 C 261.364 105.119,262.629 102.437,261.160 100.984 C 260.523 100.354,259.315 100.123,258.546 100.482 M246.446 113.053 C 240.610 114.366,236.857 118.121,235.702 123.800 C 235.374 125.416,235.326 127.303,235.338 138.184 L 235.350 148.717 235.622 148.951 C 235.965 149.247,236.856 149.375,237.411 149.209 C 238.210 148.969,238.148 149.939,238.167 137.304 C 238.176 131.114,238.213 125.735,238.249 125.350 C 238.316 124.642,239.050 122.178,239.212 122.117 C 239.260 122.098,239.300 121.996,239.300 121.888 C 239.300 121.636,239.774 120.700,239.902 120.700 C 239.956 120.700,239.990 120.666,239.978 120.625 C 239.947 120.518,240.509 119.700,240.613 119.700 C 240.661 119.700,240.700 119.637,240.700 119.560 C 240.700 118.662,243.988 116.518,246.087 116.047 C 246.713 115.907,247.399 115.692,247.612 115.571 L 247.998 115.350 247.999 114.325 C 248.000 113.757,247.958 113.300,247.907 113.300 C 247.855 113.300,247.786 113.214,247.753 113.109 C 247.660 112.816,247.526 112.810,246.446 113.053 M259.043 112.890 C 258.606 113.000,258.109 113.313,258.044 113.519 C 257.958 113.791,257.952 148.421,258.038 148.676 C 258.286 149.411,260.211 149.475,260.740 148.766 L 260.950 148.485 260.976 131.191 C 261.002 113.922,261.002 113.896,260.797 113.494 C 260.523 112.957,259.784 112.702,259.043 112.890 M284.100 112.900 C 276.868 112.928,270.899 112.983,270.837 113.023 C 270.245 113.408,270.270 115.414,270.870 115.644 C 270.955 115.676,275.845 115.702,281.737 115.702 C 292.204 115.700,293.200 115.727,293.200 116.009 C 293.200 116.253,292.739 116.946,291.775 118.150 C 291.203 118.865,290.221 120.105,289.592 120.905 C 288.964 121.705,287.190 123.948,285.650 125.890 C 284.110 127.832,282.207 130.237,281.421 131.235 C 280.634 132.233,279.622 133.518,279.171 134.090 C 278.719 134.662,278.170 135.366,277.950 135.653 C 277.730 135.941,277.014 136.846,276.358 137.663 C 275.703 138.481,274.738 139.690,274.214 140.350 C 273.691 141.010,273.028 141.843,272.742 142.200 C 271.213 144.109,269.630 146.235,269.391 146.700 C 268.947 147.561,269.149 148.872,269.761 149.104 C 269.917 149.163,274.975 149.200,283.007 149.200 L 296.002 149.200 296.288 148.925 C 296.550 148.673,296.575 148.586,296.591 147.875 C 296.608 147.086,296.595 147.048,296.130 146.540 L 295.909 146.300 291.730 146.300 C 279.186 146.299,273.930 146.195,273.834 145.944 C 273.737 145.691,276.528 141.852,276.725 141.968 C 276.766 141.992,276.800 141.945,276.800 141.863 C 276.800 141.781,276.957 141.547,277.150 141.343 C 277.343 141.139,277.500 140.942,277.500 140.906 C 277.500 140.869,277.657 140.667,277.850 140.457 C 278.043 140.247,278.200 140.044,278.200 140.007 C 278.200 139.970,278.358 139.767,278.550 139.557 C 278.743 139.347,278.900 139.144,278.900 139.107 C 278.900 139.070,279.055 138.870,279.243 138.664 C 279.432 138.458,279.601 138.251,279.618 138.205 C 279.636 138.159,279.796 137.947,279.974 137.735 C 280.152 137.523,280.786 136.735,281.383 135.984 C 281.980 135.232,282.543 134.543,282.634 134.451 C 282.725 134.360,282.800 134.255,282.800 134.218 C 282.801 134.181,282.924 134.015,283.075 133.850 C 283.226 133.685,283.480 133.359,283.639 133.125 C 283.797 132.891,283.966 132.700,284.014 132.700 C 284.061 132.700,284.100 132.637,284.100 132.560 C 284.100 132.484,284.259 132.281,284.453 132.110 C 284.648 131.940,284.779 131.800,284.745 131.800 C 284.662 131.800,285.524 130.696,285.975 130.226 C 286.099 130.097,286.200 129.964,286.200 129.930 C 286.200 129.897,286.529 129.460,286.931 128.960 C 287.334 128.459,288.009 127.608,288.431 127.067 C 288.854 126.526,289.200 126.121,289.200 126.166 C 289.200 126.210,289.279 126.104,289.375 125.930 C 289.541 125.628,290.148 124.863,290.525 124.478 C 290.621 124.380,290.700 124.264,290.700 124.220 C 290.700 124.175,290.858 123.967,291.050 123.757 C 291.243 123.547,291.400 123.340,291.400 123.298 C 291.400 123.255,291.553 123.087,291.739 122.923 C 291.926 122.759,292.106 122.541,292.139 122.437 C 292.172 122.334,292.324 122.115,292.477 121.950 C 292.629 121.785,292.929 121.409,293.144 121.114 C 293.705 120.341,295.006 118.756,295.111 118.717 C 295.160 118.698,295.200 118.628,295.200 118.561 C 295.200 118.494,295.359 118.266,295.553 118.054 C 295.747 117.842,296.040 117.487,296.203 117.264 C 296.366 117.042,296.502 116.903,296.504 116.955 C 296.506 117.007,296.568 116.915,296.642 116.750 C 296.716 116.585,296.922 116.293,297.100 116.100 C 297.445 115.727,297.794 115.064,297.798 114.775 C 297.799 114.679,297.845 114.600,297.900 114.600 C 297.955 114.600,298.000 114.397,298.000 114.150 C 298.000 113.903,297.962 113.700,297.916 113.700 C 297.870 113.700,297.779 113.525,297.715 113.312 C 297.562 112.801,298.956 112.844,284.100 112.900 M210.323 113.010 C 205.846 113.531,201.675 116.405,199.016 120.800 C 197.786 122.833,196.864 125.285,196.497 127.500 C 194.918 137.023,199.625 145.783,207.800 148.536 C 209.673 149.167,213.128 149.301,214.827 148.808 C 216.571 148.302,218.322 147.532,219.420 146.787 C 219.733 146.574,220.012 146.400,220.040 146.400 C 220.094 146.400,220.383 146.140,221.075 145.466 C 221.309 145.239,221.500 145.090,221.500 145.136 C 221.500 145.182,221.652 145.037,221.838 144.814 C 222.024 144.592,222.204 144.437,222.238 144.471 C 222.272 144.505,222.300 144.463,222.300 144.377 C 222.300 144.291,222.457 144.082,222.650 143.913 C 222.843 143.744,223.000 143.586,223.000 143.562 C 223.000 143.538,223.383 142.986,223.850 142.334 C 224.818 140.986,225.827 139.030,226.318 137.550 C 226.501 137.000,226.684 136.535,226.725 136.517 C 226.766 136.498,226.800 136.354,226.800 136.197 C 226.800 136.039,226.868 135.650,226.950 135.332 C 227.033 135.015,227.154 134.385,227.220 133.933 C 227.285 133.482,227.375 133.135,227.420 133.163 C 227.465 133.190,227.499 132.198,227.496 130.957 C 227.493 129.715,227.453 128.700,227.409 128.700 C 227.364 128.700,227.298 128.453,227.263 128.150 C 227.227 127.848,227.109 127.216,226.999 126.746 C 226.890 126.277,226.800 125.759,226.800 125.596 C 226.800 125.433,226.762 125.300,226.716 125.300 C 226.670 125.300,226.560 125.036,226.470 124.714 C 226.063 123.250,224.796 120.821,223.592 119.197 C 223.266 118.758,223.000 118.381,223.000 118.359 C 223.000 118.219,220.848 116.100,220.706 116.100 C 220.661 116.100,220.563 116.025,220.487 115.933 C 219.015 114.139,213.718 112.616,210.323 113.010 M316.100 113.097 C 302.870 115.577,298.045 134.585,308.085 144.674 C 312.028 148.636,318.069 150.254,322.350 148.493 C 322.460 148.448,322.865 148.289,323.250 148.141 C 324.242 147.759,325.038 147.349,325.877 146.787 C 326.277 146.519,326.644 146.300,326.694 146.300 C 326.743 146.300,326.798 146.266,326.817 146.225 C 326.835 146.184,327.007 146.023,327.200 145.869 C 327.727 145.445,329.400 143.778,329.400 143.677 C 329.400 143.628,329.445 143.616,329.500 143.650 C 329.555 143.684,329.600 143.653,329.600 143.581 C 329.601 143.509,329.747 143.290,329.925 143.095 C 330.104 142.899,330.316 142.614,330.396 142.461 C 330.477 142.308,330.646 142.072,330.771 141.936 C 330.897 141.801,331.000 141.653,331.000 141.609 C 331.000 141.565,331.217 141.151,331.482 140.689 C 331.747 140.228,332.095 139.513,332.254 139.100 C 332.413 138.688,332.568 138.328,332.599 138.300 C 332.629 138.273,332.787 137.822,332.950 137.300 C 333.113 136.778,333.271 136.328,333.302 136.300 C 333.746 135.907,333.994 129.992,333.656 127.850 C 333.560 127.245,333.457 126.525,333.427 126.250 C 333.397 125.975,333.341 125.728,333.303 125.700 C 333.207 125.630,332.660 123.877,332.687 123.725 C 332.699 123.656,332.667 123.600,332.617 123.600 C 332.566 123.600,332.425 123.334,332.303 123.009 C 332.182 122.684,331.839 121.977,331.541 121.439 C 331.244 120.900,331.000 120.401,331.000 120.330 C 331.000 120.258,330.961 120.200,330.913 120.200 C 330.835 120.200,330.300 119.467,330.296 119.353 C 330.295 119.327,330.138 119.135,329.948 118.928 C 329.757 118.720,329.601 118.515,329.600 118.472 C 329.600 118.429,329.443 118.256,329.250 118.087 C 329.058 117.918,328.900 117.716,328.900 117.640 C 328.900 117.563,328.866 117.509,328.825 117.520 C 328.784 117.531,328.548 117.345,328.300 117.107 C 328.053 116.869,327.648 116.514,327.400 116.317 C 327.153 116.121,326.905 115.912,326.850 115.853 C 326.278 115.237,323.126 113.635,322.100 113.438 C 321.963 113.411,321.603 113.328,321.300 113.253 C 319.720 112.859,317.694 112.798,316.100 113.097 M352.700 113.008 C 347.887 113.569,343.763 116.672,342.011 121.050 C 340.961 123.674,340.924 124.315,340.911 140.200 C 340.905 148.207,340.927 148.718,341.294 149.015 C 341.579 149.246,342.574 149.346,343.081 149.194 C 343.789 148.982,343.748 149.669,343.766 137.550 C 343.784 125.414,343.796 124.950,344.105 123.950 C 344.445 122.848,345.018 121.400,345.113 121.400 C 345.161 121.400,345.200 121.332,345.200 121.248 C 345.200 121.078,345.683 120.269,345.815 120.217 C 345.862 120.198,345.900 120.128,345.900 120.061 C 345.900 119.994,346.058 119.767,346.250 119.557 C 346.443 119.347,346.600 119.144,346.600 119.106 C 346.600 118.955,347.877 117.843,348.508 117.445 C 354.528 113.644,362.103 117.107,363.568 124.330 C 363.715 125.057,363.740 126.500,363.792 136.984 L 363.850 148.818 364.086 149.009 C 364.413 149.273,365.332 149.313,366.016 149.092 C 366.535 148.924,366.525 149.241,366.448 136.200 C 366.411 129.902,366.387 124.532,366.396 124.266 C 366.404 123.990,366.371 123.806,366.318 123.839 C 366.267 123.870,366.196 123.676,366.160 123.407 C 366.125 123.138,366.007 122.660,365.898 122.344 C 365.789 122.027,365.700 121.689,365.700 121.593 C 365.700 121.496,365.666 121.402,365.625 121.383 C 365.519 121.336,365.000 120.227,365.000 120.048 C 365.000 119.967,364.966 119.900,364.925 119.900 C 364.884 119.899,364.715 119.641,364.550 119.325 C 364.385 119.009,364.221 118.728,364.185 118.700 C 364.149 118.672,363.918 118.380,363.672 118.050 C 363.159 117.364,361.194 115.400,361.019 115.400 C 360.980 115.400,360.836 115.298,360.699 115.174 C 360.562 115.050,360.338 114.892,360.200 114.822 C 360.063 114.753,359.770 114.588,359.550 114.455 C 357.757 113.374,354.842 112.758,352.700 113.008 M385.000 112.970 C 377.873 113.531,373.643 119.683,376.316 125.599 C 377.609 128.459,380.910 130.282,388.021 132.061 C 394.626 133.713,397.000 135.492,397.000 138.786 C 397.000 145.203,388.765 148.373,381.300 144.831 C 380.778 144.583,380.335 144.340,380.317 144.290 C 380.298 144.241,380.226 144.200,380.156 144.200 C 380.086 144.200,379.908 144.088,379.759 143.950 C 379.611 143.813,379.453 143.700,379.407 143.700 C 379.362 143.700,378.910 143.306,378.403 142.825 C 377.063 141.552,376.907 141.497,376.039 141.995 C 374.609 142.815,374.683 143.290,376.513 145.052 C 381.207 149.571,389.506 150.567,395.126 147.285 C 395.524 147.053,395.961 146.758,396.099 146.631 C 396.236 146.504,396.379 146.400,396.417 146.400 C 396.455 146.400,396.771 146.103,397.118 145.739 C 397.940 144.880,397.926 144.897,398.096 144.566 C 398.177 144.410,398.346 144.172,398.471 144.036 C 398.597 143.901,398.700 143.748,398.700 143.697 C 398.700 143.558,399.238 142.455,399.325 142.417 C 399.366 142.398,399.400 142.300,399.400 142.199 C 399.400 142.097,399.520 141.595,399.668 141.082 C 400.078 139.652,400.088 138.683,399.707 137.309 C 399.538 136.701,399.400 136.139,399.400 136.060 C 399.400 135.981,399.366 135.902,399.325 135.883 C 399.284 135.865,399.117 135.580,398.954 135.250 C 398.791 134.920,398.633 134.628,398.603 134.600 C 398.427 134.438,398.000 133.794,398.000 133.690 C 398.000 133.622,397.972 133.595,397.938 133.629 C 397.904 133.663,397.651 133.479,397.376 133.220 C 397.101 132.962,396.792 132.671,396.688 132.575 C 396.585 132.479,396.461 132.400,396.413 132.400 C 396.366 132.400,396.220 132.320,396.088 132.223 C 395.037 131.441,389.790 129.519,387.400 129.040 C 383.195 128.197,378.900 125.853,378.900 124.402 C 378.900 124.291,378.856 124.200,378.803 124.200 C 378.569 124.200,378.275 122.807,378.321 121.918 C 378.365 121.073,378.654 119.900,378.818 119.900 C 378.863 119.900,378.900 119.831,378.900 119.747 C 378.900 119.525,379.385 118.600,379.502 118.600 C 379.556 118.600,379.600 118.541,379.600 118.469 C 379.600 118.237,380.968 117.030,381.600 116.704 C 383.000 115.981,386.197 115.536,388.150 115.791 C 390.717 116.127,392.392 116.956,394.073 118.724 C 395.772 120.511,395.764 120.507,396.652 119.999 C 397.160 119.708,398.000 118.960,398.000 118.798 C 398.000 118.679,397.454 118.082,396.414 117.065 C 395.220 115.896,395.231 115.907,394.672 115.505 C 394.412 115.319,394.200 115.129,394.200 115.083 C 394.200 115.037,394.166 115.010,394.125 115.021 C 394.047 115.043,393.587 114.814,393.500 114.710 C 393.390 114.578,391.496 113.694,391.300 113.683 C 391.273 113.682,391.177 113.641,391.087 113.593 C 390.280 113.161,386.932 112.818,385.000 112.970 M212.060 115.742 C 221.460 116.319,227.081 126.693,223.592 137.024 C 221.218 144.053,214.352 147.882,208.200 145.609 C 206.321 144.915,204.597 143.788,203.463 142.511 C 203.346 142.379,203.081 142.113,202.875 141.920 C 202.669 141.726,202.500 141.532,202.500 141.489 C 202.500 141.446,202.397 141.299,202.271 141.164 C 202.146 141.028,201.977 140.790,201.896 140.634 C 201.816 140.478,201.667 140.260,201.565 140.150 C 201.317 139.882,200.182 137.532,199.858 136.616 C 198.907 133.931,198.730 130.023,199.413 126.825 C 199.745 125.274,201.348 121.600,201.694 121.600 C 201.740 121.600,201.805 121.493,201.838 121.362 C 201.871 121.231,202.033 120.978,202.199 120.801 C 202.365 120.624,202.500 120.435,202.500 120.382 C 202.500 120.200,204.365 118.451,205.184 117.864 C 206.688 116.788,208.829 115.833,209.973 115.728 C 210.290 115.699,210.565 115.662,210.584 115.646 C 210.603 115.629,210.760 115.633,210.934 115.654 C 211.108 115.675,211.615 115.714,212.060 115.742 M320.287 115.853 C 328.264 117.367,333.203 127.175,330.441 136.019 C 328.359 142.683,323.357 146.654,317.540 146.260 C 315.859 146.146,312.750 145.050,312.010 144.310 C 311.908 144.208,311.781 144.108,311.726 144.088 C 311.154 143.870,308.722 141.392,308.444 140.743 C 308.386 140.607,308.316 140.517,308.289 140.545 C 308.262 140.572,308.107 140.336,307.945 140.022 C 307.783 139.707,307.622 139.428,307.588 139.400 C 307.234 139.116,306.456 137.026,305.879 134.814 L 305.472 133.250 305.486 131.412 C 305.509 128.390,306.041 125.704,307.018 123.675 C 307.303 123.084,307.573 122.600,307.618 122.600 C 307.663 122.600,307.700 122.526,307.700 122.435 C 307.700 122.248,308.211 121.400,308.325 121.400 C 308.366 121.400,308.400 121.336,308.400 121.257 C 308.400 121.179,308.558 120.947,308.750 120.743 C 308.943 120.539,309.100 120.341,309.100 120.302 C 309.100 120.124,311.002 118.296,311.552 117.945 C 311.716 117.840,311.873 117.731,311.900 117.701 C 313.197 116.320,317.616 115.347,320.287 115.853 M273.920 156.310 C 267.271 157.210,261.629 163.526,260.530 171.300 C 259.084 181.528,264.659 190.741,273.250 192.321 C 274.314 192.517,277.454 192.486,278.450 192.271 C 280.204 191.891,280.258 191.874,281.428 191.321 C 282.020 191.041,282.533 190.813,282.567 190.814 C 282.600 190.816,282.655 190.779,282.689 190.733 C 282.764 190.631,283.950 189.850,283.950 189.903 C 283.950 189.924,284.067 189.830,284.209 189.695 C 284.620 189.306,285.178 188.823,285.320 188.733 C 285.392 188.687,285.578 188.480,285.732 188.273 C 285.899 188.050,286.061 187.924,286.132 187.964 C 286.197 188.002,286.218 187.996,286.178 187.953 C 286.139 187.909,286.262 187.692,286.452 187.471 C 287.132 186.677,286.998 186.191,285.905 185.487 C 285.117 184.979,284.951 185.046,283.500 186.453 C 279.472 190.361,273.686 190.761,269.049 187.453 C 268.470 187.040,266.400 184.972,266.400 184.806 C 266.400 184.762,266.243 184.553,266.050 184.343 C 265.858 184.133,265.700 183.902,265.700 183.830 C 265.700 183.759,265.666 183.700,265.625 183.700 C 265.511 183.700,265.000 182.852,265.000 182.665 C 265.000 182.574,264.959 182.500,264.909 182.500 C 264.791 182.500,264.300 181.516,264.300 181.280 C 264.300 181.181,264.261 181.100,264.213 181.100 C 263.879 181.100,263.309 178.544,263.303 177.022 C 263.298 175.549,263.490 175.144,264.436 174.630 L 264.950 174.350 270.450 174.287 C 273.475 174.253,276.063 174.197,276.200 174.163 C 276.338 174.129,276.968 174.009,277.600 173.897 C 279.698 173.523,280.980 173.040,282.524 172.041 C 282.899 171.799,283.230 171.600,283.260 171.600 C 283.289 171.600,283.427 171.465,283.565 171.300 C 283.704 171.135,283.870 170.997,283.934 170.992 C 283.998 170.988,284.298 170.693,284.600 170.337 C 284.903 169.980,285.218 169.610,285.300 169.513 C 285.382 169.417,285.585 169.082,285.750 168.770 C 285.915 168.457,286.078 168.201,286.112 168.200 C 286.146 168.200,286.199 168.031,286.230 167.825 C 286.262 167.619,286.361 167.113,286.452 166.700 C 286.728 165.447,286.487 162.107,286.098 161.800 C 286.063 161.773,285.903 161.505,285.742 161.205 C 285.581 160.905,285.368 160.567,285.267 160.455 C 285.167 160.342,285.016 160.138,284.932 160.000 C 284.848 159.863,284.529 159.548,284.224 159.300 C 283.918 159.053,283.592 158.783,283.500 158.700 C 282.790 158.063,279.838 156.784,278.425 156.501 C 277.223 156.261,274.986 156.166,273.920 156.310 M291.517 156.349 C 290.566 156.645,290.492 157.022,291.134 158.291 C 291.614 159.240,291.622 159.262,292.845 162.600 C 293.319 163.893,293.929 165.535,294.201 166.250 C 294.473 166.965,295.463 169.620,296.401 172.150 C 297.339 174.680,298.238 177.088,298.399 177.500 C 298.560 177.913,298.982 179.038,299.337 180.000 C 300.280 182.557,301.127 184.818,301.547 185.900 C 301.750 186.423,302.066 187.278,302.250 187.800 C 303.593 191.619,303.942 192.319,304.593 192.500 C 305.917 192.868,306.782 192.391,307.357 190.975 C 307.463 190.714,307.584 190.501,307.625 190.500 C 307.666 190.500,307.700 190.406,307.700 190.291 C 307.700 190.027,308.212 188.561,308.320 188.517 C 308.364 188.498,308.400 188.409,308.400 188.319 C 308.400 188.092,308.913 186.758,309.016 186.717 C 309.062 186.698,309.100 186.587,309.100 186.469 C 309.100 186.205,309.601 184.863,309.716 184.817 C 309.762 184.798,309.800 184.698,309.800 184.593 C 309.800 184.355,310.308 183.062,310.418 183.017 C 310.463 182.998,310.500 182.886,310.500 182.767 C 310.499 182.474,311.005 181.100,311.113 181.100 C 311.161 181.100,311.200 181.000,311.200 180.877 C 311.200 180.651,311.692 179.291,311.807 179.200 C 311.841 179.173,311.870 179.083,311.871 179.000 C 311.871 178.918,312.128 178.175,312.440 177.350 C 312.753 176.525,313.264 175.145,313.576 174.282 C 313.888 173.420,314.178 172.737,314.221 172.763 C 314.265 172.790,314.300 172.722,314.300 172.612 C 314.300 172.346,314.801 170.959,314.912 170.917 C 314.961 170.898,314.999 170.808,314.999 170.717 C 314.997 170.415,315.530 169.007,315.624 169.065 C 315.675 169.096,315.703 169.038,315.687 168.936 C 315.654 168.726,316.188 167.268,316.316 167.217 C 316.362 167.198,316.400 167.080,316.400 166.954 C 316.400 166.673,316.879 165.375,317.014 165.292 C 317.067 165.259,317.098 165.191,317.083 165.141 C 317.045 165.016,317.621 163.458,317.720 163.417 C 317.764 163.398,317.800 163.300,317.800 163.198 C 317.800 163.097,317.983 162.527,318.206 161.932 C 318.429 161.337,318.852 160.197,319.146 159.400 C 319.440 158.603,319.753 157.783,319.841 157.578 C 320.256 156.609,319.933 156.248,318.674 156.275 C 317.182 156.306,317.219 156.273,316.509 158.267 C 316.238 159.028,315.536 160.910,314.949 162.450 C 314.362 163.990,313.756 165.610,313.602 166.050 C 313.448 166.490,312.885 167.998,312.351 169.400 C 311.144 172.567,310.113 175.311,309.589 176.750 C 309.368 177.355,308.967 178.413,308.696 179.100 C 308.236 180.270,307.677 181.760,306.483 185.000 C 305.656 187.246,305.300 187.905,305.300 187.194 C 305.300 187.087,305.260 187.000,305.211 187.000 C 305.114 187.000,304.600 185.787,304.600 185.557 C 304.600 185.480,304.563 185.402,304.519 185.383 C 304.413 185.340,303.900 183.946,303.900 183.703 C 303.900 183.600,303.864 183.502,303.820 183.483 C 303.721 183.442,303.199 182.011,303.200 181.783 C 303.200 181.692,303.163 181.602,303.118 181.583 C 303.008 181.538,302.500 180.245,302.500 180.007 C 302.500 179.902,302.464 179.802,302.420 179.783 C 302.312 179.739,301.800 178.273,301.800 178.009 C 301.800 177.894,301.761 177.800,301.714 177.800 C 301.667 177.800,301.445 177.316,301.222 176.725 C 299.644 172.541,298.700 169.945,298.700 169.786 C 298.700 169.684,298.661 169.600,298.613 169.600 C 298.509 169.600,298.000 168.204,298.000 167.918 C 298.000 167.807,297.962 167.702,297.916 167.683 C 297.799 167.636,297.300 166.293,297.300 166.023 C 297.300 165.900,297.261 165.800,297.213 165.800 C 297.102 165.800,296.599 164.423,296.600 164.119 C 296.600 163.992,296.563 163.911,296.519 163.938 C 296.434 163.991,295.900 162.464,295.900 162.169 C 295.900 162.076,295.861 162.000,295.813 162.000 C 295.703 162.000,295.199 160.624,295.200 160.325 C 295.200 160.201,295.160 160.100,295.111 160.100 C 295.062 160.100,294.876 159.676,294.697 159.157 C 293.801 156.557,293.030 155.876,291.517 156.349 M334.650 156.363 C 329.194 157.178,325.801 160.626,325.800 165.357 C 325.799 170.323,328.891 172.999,337.052 175.097 C 342.100 176.394,343.731 177.000,345.332 178.174 C 348.537 180.524,347.581 186.233,343.650 188.220 C 340.261 189.933,334.739 189.993,331.400 188.352 C 329.853 187.592,329.694 187.502,329.635 187.347 C 329.604 187.266,329.524 187.200,329.457 187.200 C 329.304 187.200,328.900 186.778,328.900 186.619 C 328.900 186.553,328.862 186.511,328.816 186.525 C 328.730 186.551,328.200 185.974,328.200 185.856 C 328.200 185.549,327.306 184.912,326.998 185.001 C 326.132 185.249,325.152 186.233,325.312 186.692 C 325.550 187.374,327.310 189.111,328.782 190.116 C 332.042 192.341,337.302 193.112,341.900 192.037 C 342.257 191.953,342.618 191.870,342.700 191.852 C 343.005 191.785,343.917 191.393,344.795 190.952 C 345.292 190.703,345.728 190.503,345.763 190.508 C 345.799 190.513,345.855 190.475,345.889 190.423 C 345.998 190.257,347.094 189.400,347.199 189.400 C 347.254 189.400,347.301 189.366,347.303 189.325 C 347.304 189.284,347.484 189.055,347.703 188.816 C 347.921 188.578,348.100 188.352,348.100 188.314 C 348.100 188.276,348.224 188.108,348.375 187.941 C 348.526 187.775,348.782 187.360,348.943 187.019 C 349.105 186.679,349.269 186.400,349.307 186.400 C 349.346 186.400,349.401 186.254,349.428 186.075 C 349.508 185.559,349.934 184.153,350.021 184.117 C 350.140 184.066,350.120 180.700,350.000 180.700 C 349.945 180.700,349.901 180.644,349.902 180.575 C 349.904 180.405,349.367 178.763,349.289 178.700 C 349.254 178.673,349.085 178.385,348.913 178.061 C 348.741 177.737,348.600 177.510,348.600 177.556 C 348.600 177.602,348.455 177.439,348.278 177.195 C 348.100 176.950,347.873 176.690,347.774 176.617 C 347.674 176.543,347.475 176.374,347.331 176.242 C 347.188 176.109,347.041 176.000,347.004 176.000 C 346.968 176.000,346.850 175.920,346.744 175.822 C 346.453 175.556,345.106 174.892,343.700 174.323 C 342.527 173.848,342.299 173.762,342.050 173.701 C 341.995 173.687,341.838 173.633,341.700 173.579 C 340.837 173.246,337.452 172.269,336.700 172.136 C 336.222 172.052,334.548 171.582,334.200 171.434 C 334.007 171.352,333.715 171.227,333.550 171.156 C 333.010 170.923,332.650 170.781,332.624 170.792 C 332.482 170.851,330.619 169.691,330.278 169.331 C 330.184 169.232,329.993 169.038,329.853 168.902 C 329.714 168.766,329.600 168.597,329.600 168.527 C 329.600 168.457,329.553 168.400,329.495 168.400 C 329.336 168.400,328.902 167.393,328.901 167.019 C 328.900 166.837,328.858 166.714,328.806 166.746 C 328.755 166.778,328.682 166.595,328.643 166.340 C 328.547 165.701,328.650 164.067,328.789 164.020 C 328.850 164.000,328.900 163.869,328.900 163.729 C 328.900 163.433,329.387 162.300,329.514 162.300 C 329.561 162.300,329.600 162.244,329.600 162.175 C 329.601 162.004,330.720 160.795,330.875 160.798 C 330.944 160.799,331.000 160.763,331.000 160.718 C 331.000 160.332,333.297 159.448,334.825 159.247 C 339.301 158.656,341.629 159.422,344.768 162.518 C 345.944 163.676,345.999 163.716,346.318 163.648 C 347.348 163.428,348.461 162.095,347.935 161.712 C 347.888 161.678,347.715 161.451,347.550 161.208 C 346.969 160.352,345.219 158.866,344.050 158.235 C 343.775 158.087,343.517 157.917,343.477 157.858 C 343.436 157.799,343.402 157.787,343.402 157.831 C 343.401 157.876,343.231 157.822,343.025 157.712 C 342.203 157.270,341.065 156.858,339.800 156.543 C 339.164 156.385,335.389 156.253,334.650 156.363 M278.567 159.501 C 284.158 160.907,285.672 166.531,281.265 169.524 C 278.878 171.145,276.924 171.491,269.606 171.589 C 263.467 171.672,263.864 171.698,263.699 171.198 C 263.482 170.540,263.794 168.120,264.141 167.773 C 264.209 167.705,264.294 167.503,264.330 167.323 C 264.420 166.876,264.805 166.000,264.912 166.000 C 264.961 166.000,265.000 165.920,265.000 165.823 C 265.000 165.672,265.417 164.952,265.593 164.800 C 265.625 164.773,265.780 164.559,265.939 164.325 C 266.097 164.091,266.266 163.900,266.314 163.900 C 266.361 163.900,266.400 163.842,266.400 163.771 C 266.400 162.984,270.646 160.215,272.800 159.598 C 274.319 159.163,277.042 159.118,278.567 159.501 M129.001 160.199 C 132.594 160.291,134.298 160.353,140.150 160.603 C 144.846 160.804,149.101 161.077,152.612 161.403 C 153.788 161.512,155.988 161.715,157.500 161.854 C 159.872 162.072,163.758 162.468,165.475 162.667 C 165.984 162.726,166.200 162.965,165.907 163.146 C 165.855 163.178,165.670 163.574,165.496 164.027 C 165.181 164.845,164.456 166.686,162.831 170.800 C 162.364 171.983,161.644 173.805,161.231 174.850 C 160.819 175.895,159.964 178.055,159.331 179.650 C 158.162 182.596,157.044 185.421,155.868 188.400 C 155.510 189.308,154.781 191.153,154.249 192.500 C 152.387 197.211,151.775 198.760,151.248 200.100 C 150.956 200.843,150.061 203.105,149.258 205.127 C 148.456 207.150,147.800 208.827,147.800 208.854 C 147.800 208.881,147.555 209.499,147.255 210.227 C 146.955 210.954,146.366 212.428,145.945 213.500 C 145.525 214.572,144.807 216.395,144.349 217.550 C 143.892 218.705,143.217 220.415,142.849 221.350 C 142.481 222.285,141.798 224.018,141.331 225.200 C 140.864 226.382,140.102 228.318,139.638 229.500 C 139.174 230.683,138.684 231.887,138.547 232.177 C 138.411 232.467,138.300 232.726,138.300 232.752 C 138.300 232.874,145.778 232.797,145.876 232.675 C 145.931 232.606,146.080 232.257,146.208 231.900 C 146.336 231.543,146.476 231.235,146.520 231.217 C 146.564 231.198,146.600 231.089,146.600 230.973 C 146.600 230.858,146.686 230.580,146.791 230.357 C 146.896 230.133,147.139 229.545,147.332 229.050 C 147.524 228.555,148.020 227.295,148.433 226.250 C 148.846 225.205,149.295 224.058,149.429 223.700 C 149.564 223.343,149.766 222.847,149.878 222.600 C 149.990 222.353,150.192 221.857,150.326 221.500 C 151.029 219.628,151.549 218.365,151.667 218.247 C 151.740 218.174,151.800 218.033,151.800 217.935 C 151.800 217.709,152.319 216.362,152.423 216.317 C 152.465 216.298,152.500 216.198,152.500 216.093 C 152.500 215.827,153.002 214.600,153.111 214.600 C 153.160 214.600,153.200 214.507,153.200 214.394 C 153.200 214.280,153.542 213.324,153.960 212.269 C 154.378 211.213,155.101 209.382,155.566 208.200 C 156.031 207.018,156.606 205.578,156.844 205.000 C 157.081 204.423,157.335 203.781,157.408 203.575 C 157.481 203.369,157.573 203.200,157.614 203.200 C 157.654 203.200,157.682 203.121,157.675 203.025 C 157.659 202.808,158.202 201.362,158.316 201.317 C 158.362 201.298,158.400 201.218,158.400 201.139 C 158.400 200.962,158.894 199.770,158.996 199.700 C 159.036 199.673,159.097 199.503,159.132 199.323 C 159.194 199.005,159.579 198.013,162.152 191.550 C 162.830 189.845,163.553 188.000,163.757 187.450 C 163.962 186.900,164.167 186.435,164.214 186.417 C 164.262 186.398,164.300 186.320,164.300 186.243 C 164.300 186.042,164.821 184.757,164.918 184.717 C 164.963 184.698,165.000 184.598,165.000 184.493 C 165.000 184.286,165.494 182.982,165.603 182.900 C 165.640 182.873,165.673 182.783,165.677 182.700 C 165.681 182.618,165.821 182.213,165.989 181.800 C 166.519 180.495,169.253 173.591,169.642 172.575 C 169.847 172.039,170.057 171.600,170.108 171.600 C 170.158 171.600,170.200 171.521,170.200 171.425 C 170.199 171.163,170.714 169.800,170.813 169.800 C 170.861 169.800,170.900 169.710,170.900 169.601 C 170.900 169.358,171.405 168.063,171.518 168.017 C 171.563 167.998,171.600 167.909,171.600 167.819 C 171.600 167.605,172.123 166.260,172.223 166.217 C 172.265 166.198,172.300 166.106,172.300 166.011 C 172.300 165.841,172.568 165.122,172.986 164.170 C 173.188 163.712,173.212 163.693,173.524 163.749 C 173.703 163.781,174.255 163.869,174.750 163.945 C 179.799 164.711,186.614 166.034,191.300 167.156 C 192.373 167.413,193.528 167.684,193.868 167.759 C 194.209 167.833,195.154 168.081,195.968 168.309 C 197.340 168.694,197.987 168.872,199.850 169.380 C 203.281 170.314,210.550 172.933,213.850 174.424 C 215.547 175.191,218.699 176.709,219.200 177.001 C 219.447 177.146,220.100 177.505,220.650 177.800 C 232.781 184.304,240.313 193.913,241.697 204.650 C 243.038 215.044,239.876 223.208,230.638 233.200 C 227.089 237.039,221.107 242.440,217.287 245.256 C 217.142 245.363,216.535 245.830,215.937 246.294 C 210.547 250.478,203.670 255.134,195.250 260.303 C 193.191 261.567,192.652 261.888,190.000 263.427 C 189.148 263.921,187.865 264.666,187.150 265.081 C 186.435 265.496,185.445 266.057,184.950 266.328 C 184.455 266.599,183.758 266.991,183.400 267.200 C 183.043 267.408,182.300 267.824,181.750 268.125 C 178.310 270.004,177.508 270.441,176.250 271.121 C 174.778 271.916,171.312 273.730,167.450 275.725 C 165.325 276.823,157.973 280.484,155.650 281.601 C 152.140 283.289,145.131 286.600,145.068 286.600 C 145.024 286.600,143.796 287.173,141.700 288.172 C 141.067 288.473,140.100 288.913,139.550 289.149 C 139.000 289.385,137.583 290.014,136.400 290.546 C 133.359 291.915,130.109 293.360,128.300 294.148 C 127.447 294.520,126.053 295.129,125.200 295.501 C 124.347 295.874,122.615 296.614,121.350 297.145 C 120.085 297.676,118.713 298.263,118.300 298.448 C 117.440 298.836,114.800 299.943,111.400 301.342 C 110.108 301.874,108.465 302.553,107.750 302.850 C 105.624 303.735,103.124 304.760,101.950 305.228 C 101.345 305.469,98.848 306.466,96.400 307.442 C 90.789 309.681,89.455 310.209,87.900 310.809 C 87.213 311.074,85.908 311.579,85.000 311.931 C 84.093 312.283,81.798 313.165,79.900 313.891 C 78.002 314.617,76.000 315.385,75.450 315.597 C 74.124 316.108,71.475 317.102,65.400 319.367 C 63.503 320.075,60.334 321.237,58.500 321.898 C 57.867 322.126,56.855 322.495,56.250 322.718 C 55.645 322.941,54.542 323.339,53.800 323.603 C 53.058 323.867,51.573 324.399,50.500 324.785 C 45.315 326.651,43.325 327.361,41.900 327.852 C 41.048 328.145,39.428 328.708,38.300 329.103 C 37.173 329.498,35.215 330.179,33.950 330.616 C 32.685 331.054,30.863 331.684,29.900 332.017 C 27.825 332.735,14.335 337.288,13.076 337.695 L 12.202 337.978 12.268 337.714 C 12.304 337.569,12.444 337.203,12.579 336.900 C 12.714 336.598,12.927 336.080,13.053 335.750 C 13.179 335.420,13.339 335.015,13.407 334.850 C 13.475 334.685,13.542 334.505,13.556 334.450 C 13.601 334.277,14.087 333.026,14.284 332.579 C 14.388 332.343,14.542 331.970,14.627 331.750 C 14.968 330.864,15.215 330.240,15.301 330.050 C 15.350 329.940,15.689 329.085,16.053 328.150 C 17.184 325.250,17.426 324.653,17.514 324.555 C 17.562 324.503,17.600 324.390,17.601 324.305 C 17.601 324.220,17.663 324.031,17.739 323.886 C 17.815 323.740,17.976 323.335,18.097 322.986 C 18.218 322.636,18.354 322.305,18.400 322.250 C 18.446 322.195,18.479 322.128,18.474 322.100 C 18.469 322.072,18.659 321.555,18.895 320.950 C 19.132 320.345,19.703 318.882,20.165 317.700 C 20.627 316.518,21.067 315.415,21.142 315.250 C 21.217 315.085,21.375 314.703,21.494 314.400 C 21.613 314.098,21.748 313.760,21.793 313.650 C 21.898 313.397,22.092 312.898,22.554 311.700 C 22.875 310.866,24.780 306.060,25.111 305.250 C 25.178 305.085,25.237 304.926,25.242 304.897 C 25.246 304.867,25.324 304.665,25.415 304.447 C 25.505 304.229,25.784 303.532,26.033 302.900 C 27.881 298.211,28.200 297.393,28.200 297.343 C 28.200 297.313,28.308 297.054,28.439 296.769 C 28.571 296.483,28.822 295.868,28.998 295.400 C 29.174 294.933,29.378 294.415,29.450 294.250 C 29.523 294.085,29.695 293.657,29.833 293.300 C 30.993 290.301,32.624 286.163,32.850 285.650 C 32.923 285.485,33.128 284.968,33.307 284.500 C 33.485 284.032,33.786 283.268,33.976 282.800 C 34.166 282.332,34.589 281.252,34.915 280.400 C 35.241 279.548,35.636 278.558,35.792 278.200 C 35.949 277.843,36.146 277.370,36.230 277.150 C 36.575 276.251,37.815 273.080,38.206 272.100 C 38.436 271.522,38.867 270.420,39.165 269.650 C 39.462 268.880,39.925 267.710,40.194 267.050 C 40.462 266.390,40.801 265.535,40.947 265.150 C 41.093 264.765,41.387 264.022,41.599 263.500 C 42.235 261.933,43.700 258.203,43.700 258.149 C 43.700 258.121,43.787 257.907,43.892 257.674 C 43.998 257.441,44.297 256.710,44.557 256.050 C 44.816 255.390,45.067 254.835,45.114 254.817 C 45.161 254.798,45.200 254.693,45.200 254.582 C 45.200 254.413,46.606 250.740,47.050 249.750 C 47.124 249.585,47.394 248.888,47.651 248.200 C 48.113 246.963,48.168 246.826,48.584 245.850 C 48.701 245.575,49.092 244.587,49.453 243.655 C 49.814 242.723,50.157 241.902,50.217 241.830 C 50.276 241.759,50.301 241.700,50.273 241.700 C 50.244 241.700,50.469 241.081,50.771 240.325 C 51.074 239.569,51.581 238.275,51.899 237.450 C 52.217 236.625,52.712 235.365,52.999 234.650 C 53.286 233.935,53.651 232.999,53.809 232.571 C 53.968 232.143,54.204 231.558,54.333 231.271 C 54.463 230.984,54.639 230.570,54.724 230.350 C 54.809 230.130,55.289 228.908,55.790 227.634 C 56.290 226.360,56.700 225.290,56.700 225.258 C 56.700 225.115,57.537 223.247,57.614 223.217 C 57.662 223.198,57.700 223.081,57.700 222.956 C 57.700 222.830,58.154 221.585,58.709 220.189 C 59.264 218.792,60.010 216.907,60.367 216.000 C 60.725 215.093,61.192 213.923,61.405 213.400 C 61.803 212.426,63.637 207.727,63.952 206.875 C 64.048 206.614,64.160 206.400,64.201 206.400 C 64.242 206.400,64.302 206.266,64.335 206.102 C 64.367 205.938,65.122 203.969,66.010 201.727 C 67.440 198.120,69.019 194.124,69.775 192.200 C 69.915 191.843,70.062 191.528,70.100 191.500 C 70.139 191.472,70.194 191.338,70.223 191.200 C 70.252 191.063,70.525 190.320,70.829 189.550 C 71.134 188.780,71.638 187.498,71.950 186.700 C 73.475 182.805,73.837 181.889,74.146 181.150 C 74.331 180.710,74.729 179.697,75.033 178.900 C 75.336 178.103,75.762 177.023,75.979 176.500 C 76.196 175.978,76.428 175.381,76.495 175.175 C 76.561 174.969,76.657 174.800,76.708 174.800 C 76.758 174.800,76.800 174.724,76.800 174.632 C 76.800 174.473,77.861 171.672,78.498 170.150 C 78.659 169.765,79.291 168.168,79.903 166.600 C 80.514 165.033,81.217 163.255,81.463 162.650 C 81.709 162.045,81.950 161.456,81.997 161.340 C 82.071 161.157,82.194 161.122,82.966 161.065 C 87.023 160.768,96.106 160.375,102.800 160.207 C 107.319 160.093,124.675 160.088,129.001 160.199 " stroke="none" fill="#FFF" fill-rule="evenodd"/></g></svg>